/* XPM */
static char *_9999471382a49c6b6169a9acb655365A8cZzQGCR3MkEdIg[] = {
/* columns rows colors chars-per-pixel */
"40 40 180 2 ",
"   c None",
".  c #020201",
"X  c #0A0906",
"o  c #0C0C0A",
"O  c #0A0700",
"+  c #150E03",
"@  c #120E0B",
"#  c #13130D",
"$  c #1F1500",
"%  c #0D0D10",
"&  c #131312",
"*  c #1C1C14",
"=  c #181615",
"-  c #2C1D00",
";  c #221C0A",
":  c #231E19",
">  c #312000",
",  c #3C2800",
"<  c #25251A",
"1  c #2B221A",
"2  c #2B2B1C",
"3  c #2C2215",
"4  c #3D2F1C",
"5  c #1C1C21",
"6  c #201F26",
"7  c #2B2722",
"8  c #343423",
"9  c #3A3A26",
"0  c #3C3C2B",
"q  c #3E3527",
"w  c #2E2E38",
"e  c #3C3C31",
"r  c #32323C",
"t  c #3E3E3A",
"y  c #422C00",
"u  c #4C3300",
"i  c #523600",
"p  c #573A00",
"a  c #593B00",
"s  c #403525",
"d  c #4A3B2D",
"f  c #6D4800",
"g  c #795000",
"h  c #604817",
"j  c #43432C",
"k  c #444433",
"l  c #4B4B32",
"z  c #44443D",
"x  c #4B4B3D",
"c  c #48423C",
"v  c #5E4A37",
"b  c #544436",
"n  c #55553B",
"m  c #5B5A3C",
"M  c #535337",
"N  c #3B3B4B",
"B  c #454344",
"V  c #484840",
"C  c gray30",
"Z  c #564B40",
"A  c #535343",
"S  c #585843",
"D  c #54544B",
"F  c #585849",
"G  c #434354",
"H  c #4B4B5F",
"J  c #5D5D53",
"K  c #5D5D5C",
"L  c #515151",
"P  c #636342",
"I  c #696945",
"U  c #63634C",
"Y  c #6A6A4C",
"T  c #74744D",
"R  c #646453",
"E  c #6B6B55",
"W  c #61615C",
"Q  c #6C6C5B",
"!  c #7C7C52",
"~  c #79795C",
"^  c #757559",
"/  c #514F60",
"(  c #545469",
")  c #5A5A6E",
"_  c #636362",
"`  c #6E6E63",
"'  c #6C6C6B",
"]  c #747462",
"[  c #7C7C64",
"{  c #7C7C69",
"}  c #6F6F70",
"|  c #747475",
" . c #787871",
".. c #777878",
"X. c #835700",
"o. c #9E6900",
"O. c #886C4E",
"+. c #896E54",
"@. c #937556",
"#. c #94775A",
"$. c #927866",
"%. c #828256",
"&. c #858559",
"*. c #8B8B5D",
"=. c #828262",
"-. c #83836A",
";. c #8B8B6C",
":. c #939362",
">. c #999966",
",. c #9C9C69",
"<. c #90906E",
"1. c #8F8F73",
"2. c #85817A",
"3. c #9B9B75",
"4. c #93937D",
"5. c #9E9E79",
"6. c #B99572",
"7. c #A2A271",
"8. c #A3A37A",
"9. c #AEAE7F",
"0. c #C39A70",
"q. c #CBA27A",
"w. c #666780",
"e. c #7B7B9A",
"r. c #8A8A8A",
"t. c #888887",
"y. c #979781",
"u. c #9C9C82",
"i. c #91908F",
"p. c #8E8E90",
"a. c #9B9B9E",
"s. c #A4A482",
"d. c #AAAA82",
"f. c #AFAF8F",
"g. c #B1B181",
"h. c #B6B68B",
"j. c #BDBD8D",
"k. c #A8A890",
"l. c #B2B296",
"z. c #BCBC90",
"x. c #BBBB9A",
"c. c #8686A7",
"v. c gray66",
"b. c #A4A4A3",
"n. c #BFBFA1",
"m. c #B5B5B3",
"M. c #BDBCB6",
"N. c #BBBBBB",
"B. c #C7A383",
"V. c #D6AB80",
"C. c #E8B987",
"Z. c #C0C08F",
"A. c #C4C494",
"S. c #C9C997",
"D. c #CDCD9A",
"F. c #C0C09B",
"G. c #D0D09C",
"H. c #FFCE9B",
"J. c #F6C594",
"K. c #FFD19D",
"L. c #C7C7A5",
"P. c #CACAA4",
"I. c #D1D1AC",
"U. c #E5E5BB",
"Y. c #BCBCEB",
"T. c #C2C2C2",
"R. c #CBCBCA",
"E. c #CACAC5",
"W. c #D3D3CD",
"Q. c #D6D6D5",
"!. c #DBDAD8",
"~. c #E1E1DE",
"^. c #CDCDFF",
"/. c #C6C6F7",
"(. c #E6E6E5",
"). c #EDEDEC",
"_. c #F1F1EF",
"`. c #FEFEFE",
"'. c #FEFEFE",
"]. c #F6F6F4",
/* pixels */
"                                                                                ",
"                                                                                ",
"                                                                                ",
"                                                                                ",
"                                    . X X X .                                   ",
"                                X 9 ^ 5.8.8.~ 0 o                               ",
"                              & ~ h.A.D.D.G.D.j.=.<                             ",
"                            # ;.Z.>.,.j.D.D.g.>.g.3.*                           ",
"                          . Y D.Z.>.>.Z.D.D.9.:.g.D.~ .                         ",
"                        . . U j.D.A.A.D.D.D.S.A.S.D.j.< .                       ",
"                    . 2 < k n k 8.D.D.D.D.D.D.G.S.d.U * 9 j o                   ",
"                  X l *.0 9 3.^ 0 E j.D.D.A.d.;.S e { -.j :.P #                 ",
"                  8 :.,.0 7 k ;.P.E x S E R S E u.P.F.U 9 >.,.M                 ",
"                . P ,.,.S E d.Q u.U.L.Q ] n.L.f.u.k.4.] n >.,.! #               ",
"                . I ,.7.3.A ] s.l.y.L.U.I.u.` u.x.P.l.J =.7.,.! # .             ",
"                . j ,.A.D.z.-.R { ] J R s.n.4.z R Q Q s.D.A.7.m ; $ .           ",
"                  o ~ D.D.D.D.A.d.;.{ Q Q { -.1.5.h.D.D.D.D.<.; f p .           ",
"                  L B R h.D.D.D.D.D.D.D.D.D.D.D.D.D.D.D.z.[ t q g a             ",
"                C (.Q.' z E 5.z.D.D.D.D.D.D.D.D.D.A.s.~ V _ R.M.h i             ",
"              . _ a.| r.N.| B z A R [ -.1.;.{ E S x B ' m.v...2.s >             ",
"            o G ) ( w t.`.`.(.N.p.| _ K K K W } r.m.(.'.`.b.X 3 4 + .           ",
"            G c.G N w T.).!.m.E.`.`.`.).Q.].`.`.`.M.T.(.'.!.Z 0.C.@.=           ",
"            w.N 6 r 5 _ D k 0 ` ].`.~. .e t.).`._.z 8 x ' i.c q.H.H.v           ",
"            5 b 6.#.d 1 m *.&.F ~.N.D n ! l W R.W.x &.! j X X @.K.J.b           ",
"            1 V.K.H.B.: T ,.:.k K x T >.,.:.I A J m ,.,.T X . q O.v @           ",
"            s C.H.H.$.& T ,.,.P n *.,.,.,.,.,.&.l T ,.,.T o   - i -             ",
"            @ +.q.#.7 = T ,.,.>.,.,.,.,.,.,.,.,.,.,.,.,.! #   u o.p             ",
"              & B / H = T ,.,.,.,.,.,.,.,.,.,.,.,.,.,.,.%.#   u o.p             ",
"              N Y.^.Y.r T ,.,.,.,.,.,.,.,.,.,.,.,.,.,.,.&.#   u o.p             ",
"              G /.^.Y.r 8 m I T ! ! %.&.&.&.%.%.! T I m j X   u o.p             ",
"              % ( e.( % . o j l l j j j j j j j l l l #       u o.p             ",
"                  .       * &.,.:.:.:.:.:.:.:.:.:.>.:.2       u o.p             ",
"                        . . < 9 l m P I I I I P n j 8 X .     u o.p             ",
"                      . . . . . . . . . . . . . . . . . . .   , X.y             ",
"                        . . . . . .           . . . . . .     O + O             ",
"                            . .                   . .                           ",
"                                                                                ",
"                                                                                ",
"                                                                                ",
"                                                                                "
};
