/* XPM */
static char *result[] = {
/* columns rows colors chars-per-pixel */
"28 32 5 1 ",
"  c #04193F",
". c #780BF7",
"X c #D840FB",
"o c #F489F6",
"O c None",
/* pixels */
"OOOOOOOOOOOOOOOOOOOOOOOOOOOO",
"OOOOOOOOOOOOOOOOOOOOOOOOOOOO",
"OOOOOOOOOOOOOOOOOOOOOOOOOOOO",
"OOOOO   OOOOOOOOOOOOOOOOOOOO",
"OOOO ooo OOOOO   OOOOOOOOOOO",
"OOOO ooo OOO  ... OOOOOOOOOO",
"OOOO oooo   ..... OOOOOOOOOO",
"OOOO oooXXXXX.... OOOOOOOOOO",
"OOOO XoooooXXXX. OOOOOOOOOOO",
"OOO XoooooooooXX. OOOOOOOOOO",
"OOO oooooooooooX. OOOOOOOOOO",
"OO XoooooooooooXX. OOOOOOOOO",
"OO ooooooooooooXX. OOOOOOOOO",
"OO ooooooooooooXX. OOOOOOOOO",
"OO ooooooooooooXX. OOOOOOOOO",
"O  ooooooooooooXX. OOOOOOOOO",
" X XoooooooooooXX. OOOOOOOOO",
" XX oooooooooooXX OOOOOOOOOO",
" XX XoooooooooXX. OOOOOOOOOO",
" XXXXoooooooXX..  OOOOOOOOOO",
"O XXXooooooooX.... OOOOOOOOO",
"OO   ooooooooX.... OOOOOOOOO",
"OOOO ooooooooX. .. OOOOOOOOO",
"OOOO ooooooooX.   OOOOOOOOOO",
"OOOO ooooooooXX. OOOOOOOOOOO",
"OOOOO ooooooXXX. OOOOOOOOOOO",
"OOOOO oooooX.... OOOOOOOOOOO",
"OOOOO ooooX  ... OOOOOOOOOOO",
"OOOOO oooX OO    OOOOOOOOOOO",
"OOOOO ooo OOOOOOOOOOOOOOOOOO",
"OOOOO ooo OOOOOOOOOOOOOOOOOO",
"OOOOO    OOOOOOOOOOOOOOOOOOO"
};
