/* XPM */
static char *_9b6d10cffb745188dc439df15ac6c76RWcIeQCIUWw2cQyP[] = {
/* columns rows colors chars-per-pixel */
"40 40 188 2 ",
"   c None",
".  c #010101",
"X  c #080601",
"o  c #0A0A07",
"O  c #0C0B09",
"+  c #140D00",
"@  c #130F0C",
"#  c #191100",
"$  c #14120D",
"%  c #1D1C14",
"&  c #181613",
"*  c #261900",
"=  c #342302",
"-  c #392806",
";  c #212116",
":  c #242419",
">  c #2C2C1E",
",  c #2C2319",
"<  c #312C1D",
"1  c #30271C",
"2  c #26262C",
"3  c #2C2C2C",
"4  c #322F2B",
"5  c #352D22",
"6  c #343423",
"7  c #343429",
"8  c #3B3A2C",
"9  c #38342F",
"0  c #3F3F32",
"q  c #383736",
"w  c #292934",
"e  c #412D08",
"r  c #543801",
"t  c #49340A",
"y  c #423629",
"u  c #4B3C2D",
"i  c #443C2D",
"p  c #624202",
"a  c #6C4800",
"s  c #7E5500",
"d  c #43432D",
"f  c #444332",
"g  c #4B4B34",
"h  c #46463C",
"j  c #4A4A3A",
"k  c #544433",
"l  c #514E3C",
"z  c #5F4D3A",
"x  c #5A4836",
"c  c #515136",
"v  c #54533A",
"b  c #58583B",
"n  c #63503C",
"m  c #60603E",
"M  c #4A4948",
"N  c #545342",
"B  c #5B5A44",
"V  c #55554A",
"C  c #5C5C4B",
"Z  c #464658",
"A  c #5E5E5C",
"S  c #565554",
"D  c #554A47",
"F  c #645F47",
"G  c #6A5B48",
"H  c #725C45",
"J  c #626241",
"K  c #696946",
"L  c #64614C",
"P  c #6E6E49",
"I  c #68644B",
"U  c #7B634C",
"Y  c #73734C",
"T  c #6B6958",
"R  c #756956",
"E  c #747354",
"W  c #7A7356",
"Q  c #7B7B52",
"!  c #74745B",
"~  c #7E795D",
"^  c #7E745F",
"/  c #6F6F69",
"(  c #6C6661",
")  c #746E69",
"_  c #766E66",
"`  c #71716D",
"'  c #777766",
"]  c #65657D",
"[  c #737373",
"{  c #797674",
"}  c #7A7976",
"|  c #7D7E7C",
" . c #865A00",
".. c #8A5C00",
"X. c #825700",
"o. c #886D52",
"O. c #847D5D",
"+. c #9D7D5E",
"@. c #9B7A56",
"#. c #8C786F",
"$. c #947D67",
"%. c #827B75",
"&. c #828256",
"*. c #858559",
"=. c #8C8C5D",
"-. c #898262",
";. c #8C8B64",
":. c #838369",
">. c #8E8E6C",
",. c #878363",
"<. c #939363",
"1. c #9A9A66",
"2. c #94926D",
"3. c #9B9B69",
"4. c #98966B",
"5. c #898974",
"6. c #87877E",
"7. c #929174",
"8. c #9A9A73",
"9. c #95957E",
"0. c #99997E",
"q. c #A78664",
"w. c #B58F63",
"e. c #B59068",
"r. c #B89673",
"t. c #ACAC6A",
"y. c #A5A57C",
"u. c #A9A97C",
"i. c #A3A373",
"p. c #C49D76",
"a. c #CCA37A",
"s. c #D0A77D",
"d. c #CDCD7A",
"f. c #70708C",
"g. c #777795",
"h. c #7E7EA0",
"j. c #858482",
"k. c #8A8888",
"l. c #908D8A",
"z. c #9E9E84",
"x. c #868699",
"c. c #9B9B9B",
"v. c #A3A384",
"b. c #ACAC83",
"n. c #AAA789",
"m. c #B4B285",
"M. c #BCBC8D",
"N. c #BCBC94",
"B. c #BDBD99",
"V. c #BCB691",
"C. c #8C8CAD",
"Z. c #8080A0",
"A. c #9392B6",
"S. c #9C9CBD",
"D. c #A4A4A4",
"F. c #B9B9B8",
"G. c #CDA780",
"H. c #D6AC83",
"J. c #DEB286",
"K. c #E7B98B",
"L. c #C4C493",
"P. c #C9C996",
"I. c #CDCD9A",
"U. c #F5C493",
"Y. c #FFCF9C",
"T. c #FFD19D",
"R. c #EAEA8B",
"E. c #F0F08E",
"W. c #FFFF9A",
"Q. c #C7C7A4",
"!. c #D1D0A7",
"~. c #E0DEB3",
"^. c #E4E5BB",
"/. c #9F9EC4",
"(. c #A29EC1",
"). c #A2A2CA",
"_. c #AFAFDC",
"`. c #B0B0D9",
"'. c #B4B4E0",
"]. c #D9D9D6",
"[. c #C5C5C4",
"{. c #E2E1DF",
"}. c #E4E4E3",
"|. c #EBEBEB",
" X c #EAEAE7",
".X c #F2F1EF",
"XX c #FEFEFE",
"oX c #F6F6F6",
/* pixels */
"                                                                                ",
"                                                                                ",
"                                                                                ",
"                                                                                ",
"                                    X o o X                                     ",
"                                : B 2.y.y.>.N %                                 ",
"                            X v u.P.I.I.I.P.L.y.f .                             ",
"                          . B L.i.1.L.I.I.u.1.u.M.f                             ",
"                          7 M.P.3.1.L.I.I.u.<.u.I.b.%                           ",
"                      X . E I.I.P.P.P.I.I.P.L.P.I.8.; .                         ",
"                    : g % 8 >.L.I.I.I.I.I.I.I.M.E 8 B % 6 $                     ",
"                  6 *.Q j v.N 0 ! 8.M.P.I.P.8.j j 8.E % Q Y ;                   ",
"                ; *.3.Q 7 v.Q.N.:.C B E C N j v.B.N j ; Q 3.K o                 ",
"                d 1.1.;.h 9.z.n.z.B.Q.9.C 0.^.Q.' :.b.0 ;.1.<.:                 ",
"              . g 1.1.u.C 5.Q.B.0.T T v.~.!.7.9.v.>.C ! u.1.<.:                 ",
"            X * < =.m.P.N.:.l N 8 F b.V.~ l L T N L y.P.P.m.Q $                 ",
"            + s = j L.I.I.I.M.u.2.-.W R F W O.8.m.P.I.I.I.b.7 .                 ",
"            +  .t 0 N y.P.I.I.I.I.I.P.P.I.I.I.I.I.I.I.L.7.h A 3                 ",
"            + p ^ {.l.4 v 2.m.P.I.I.I.I.I.I.I.I.L.b.,.f q D.oXc.                ",
"            + - T j.{ ( U k i l F L ~ ;.-.E I B g y x n S [ j.l.3               ",
"            + r p + q %.G.U.a.+.k o u z z 5 $ H q.H.U.r.} 4 k k @               ",
"            X - e X | F.$.U.T.J.k 9 $.J.H.R S U U.Y.K.R [.%.q.K.U X             ",
"            , @.w.1 } l.9 H s.n j.{.j._ ) D..Xk.o.p.n 7 A M D #.G O             ",
"          $ q.Y.K.y & $ d 6 1 ) .XXXXX}.|.XXXX.X{ 5 d v 2 g./.(.A.Z             ",
"          % p.T.U.+.@ 6 *.; } |.XXXXXX}.].XXXXXX|.| % 8 C.S.5.4.j./.Z           ",
"            k r.e.u . d 1.g ` }.XXXX].T S ].XXXX|.| 6 M '.:.R.W.d.k.Z.X         ",
"            . = = X   d 1.=.g N ` / V J J N / ` V g m S _.1.W.W.E.6.C.o         ",
"            + s  .#   g 1.1.<.Q Y Y *.1.1.*.Y P Q <.&.M `.} d.R.t.x.f.          ",
"            + ....#   v 3.3.3.3.3.3.1.1.1.1.3.3.3.3.1.c ] ).x.6.x.A.w           ",
"            + ....#   : v K Y Q Q &.&.*.*.&.&.Q Q P J d & Z g.h.] 2             ",
"            +  ...#     . 6 c g g d d d d d d g g g > .                         ",
"            +  . .+     . 6 c b Y =.<.<.<.<.=.P v c > .                         ",
"            + ..X.+   . . . . . $ d K K K J 6 O . . . .                         ",
"            + a a +   . . . . . . . X X X . . . . . . . .                       ",
"            . + +     . . . . . .           . . . . . .                         ",
"                          . .                   . .                             ",
"                                                                                ",
"                                                                                ",
"                                                                                ",
"                                                                                "
};
