/* XPM */
static char *_8bc68869ff646baa3b0f3d53a768f8bPmxYp0y3isL5CP34[] = {
/* columns rows colors chars-per-pixel */
"40 32 6 1 ",
"  c None",
". c #04193F",
"X c #780BF7",
"o c #D840FB",
"O c #F489F6",
"+ c #FCFEFE",
/* pixels */
"                                        ",
"                                        ",
"                                        ",
"                                        ",
"                                        ",
"                    ...    ...          ",
"                   .XXX.  .OOO.         ",
"                   .XXX.  .OOO.         ",
"                   .XXX...OOOO.         ",
"                  .XXXXooooOOO.         ",
"                  .XXoooOOOOOOo.        ",
"                  .XoooOOOOOOOo.        ",
".                .XX++++++OOOOO.        ",
".                .X++++++++OOOOo.       ",
".               .X..+++...++OOOO.       ",
".               ..+..+.++..+OOOO.       ",
".               .....+.....+OOOO.       ",
".               .....+.....+OOOO.       ",
"                .X..+++...+OOOOo.       ",
"                 .+++++++++OOOO.        ",
"                 .X++++++oOOOOo.        ",
"                  .XXXoooOOOOO.         ",
"                   .X+++OOOOOO.         ",
"                   .X++++OXOOO.         ",
"                   .+++++OXOOO.         ",
"                   .+++++XOOOO.         ",
"                   .+++++XOOOX.         ",
"                   .+++++XOOOX.         ",
"                   .X++++oXXXo.         ",
"                  .XXXoooooooO.         ",
"                 .XXXXX...OOOOO.        ",
"                 .XXXX.   .OOOO.        "
};
