/* XPM */
static char *_05d74a4b4534119b3b87606b168d03b4fWrycQMo9HK4iez[] = {
/* columns rows colors chars-per-pixel */
"40 40 183 2 ",
"   c None",
".  c #020201",
"X  c #0A0A07",
"o  c #0D0D0B",
"O  c #120E0B",
"+  c #12120D",
"@  c #1B1B13",
"#  c #1E1E1F",
"$  c #111111",
"%  c #241D17",
"&  c #212116",
"*  c #27261B",
"=  c #2C2C1E",
"-  c #201F26",
";  c #242422",
":  c #2C2C22",
">  c #2A2727",
",  c #322D22",
"<  c #333322",
"1  c #3B3425",
"2  c #3C3A27",
"3  c #36362B",
"4  c #3D3C2C",
"5  c #3D3729",
"6  c #2F2E36",
"7  c #3F3F30",
"8  c #363638",
"9  c #453D2D",
"0  c #4B3C2D",
"q  c #403729",
"w  c #453D35",
"e  c #44442D",
"r  c #444433",
"t  c #4B4B32",
"y  c #4B4B3B",
"u  c #42423A",
"i  c #544738",
"p  c #525237",
"a  c #54543B",
"s  c #5C533D",
"d  c #5B5B3C",
"f  c #62583E",
"g  c #343443",
"h  c #424240",
"j  c #4A4A44",
"k  c #474649",
"l  c #574D47",
"z  c #565644",
"x  c #5D5B44",
"c  c #55544C",
"v  c #5D5D4D",
"b  c #494955",
"n  c #5E5953",
"m  c #515151",
"M  c #625446",
"N  c #655B41",
"B  c #765E47",
"V  c #705F55",
"C  c #646342",
"Z  c #6A6A46",
"A  c #62624A",
"S  c #6C6C4B",
"D  c #68614A",
"F  c #79634F",
"G  c #74754E",
"H  c #646451",
"J  c #6D6C54",
"K  c #6C6C5A",
"L  c #676759",
"P  c #756958",
"I  c #757456",
"U  c #7B7B52",
"Y  c #7B7B5D",
"T  c #5B5B65",
"R  c #535369",
"E  c #5B5B73",
"W  c #6A6A63",
"Q  c #7A6D61",
"!  c #77746B",
"~  c #787865",
"^  c #64647A",
"/  c #7A7A7B",
"(  c #727273",
")  c #836B54",
"_  c #80775E",
"`  c #977A5B",
"'  c #997B5B",
"]  c #9D7E60",
"[  c #7F8055",
"{  c #818156",
"}  c #848558",
"|  c #8C8C5D",
" . c #858565",
".. c #82826F",
"X. c #8D8D6B",
"o. c #918A6D",
"O. c #969664",
"+. c #9A9A67",
"@. c #93936D",
"#. c #9B9B6B",
"$. c #8D8D75",
"%. c #959471",
"&. c #9D9C75",
"*. c #96967B",
"=. c #9D9D7C",
"-. c #9A9779",
";. c #A78867",
":. c #B3906D",
">. c #A29C78",
",. c #BA9876",
"<. c #A7A777",
"1. c #A4A37D",
"2. c #ABAA7C",
"3. c #A9A77E",
"4. c #B0B07F",
"5. c #C29B74",
"6. c #CDA47C",
"7. c #D3A87F",
"8. c #D0A67C",
"9. c #6D6D89",
"0. c #626283",
"q. c #757584",
"w. c #757590",
"e. c #7F7F9F",
"r. c #72729A",
"t. c #7878A1",
"y. c #8A8985",
"u. c #979780",
"i. c #87879C",
"p. c #979798",
"a. c #A4A487",
"s. c #ACAC88",
"d. c #B2AE82",
"f. c #B3B384",
"g. c #B5B489",
"h. c #BDBC8C",
"j. c #B8B487",
"k. c #B3B394",
"l. c #BDBD94",
"z. c #8989AB",
"x. c #9292B9",
"c. c #A7A7A7",
"v. c #ABABAC",
"b. c #ACA6A0",
"n. c #B2B0AE",
"m. c #B6B5B3",
"M. c #BCBCBA",
"N. c #D4AC80",
"B. c #DCB184",
"V. c #DBB189",
"C. c #EBBD8D",
"Z. c #E2B788",
"A. c #C4C493",
"S. c #C8C896",
"D. c #C4C49B",
"F. c #CDCD9A",
"G. c #CFD09C",
"H. c #D0D09C",
"J. c #D0D09B",
"K. c #EEC093",
"L. c #F2C396",
"P. c #FECD9B",
"I. c #FFD19D",
"U. c #CACAA9",
"Y. c #C7C7A3",
"T. c #D6D5AC",
"R. c #E2DFB2",
"E. c #9898C6",
"W. c #9E9ED3",
"Q. c #B9B9E7",
"!. c #C3C3C3",
"~. c #CAC9C8",
"^. c #DEDEDF",
"/. c #E3E2DF",
"(. c #C4C4F4",
"). c #CDCDFF",
"_. c #C6C6F8",
"`. c #EFEFEF",
"'. c #E8E6E5",
"]. c #F3F0ED",
"[. c #F2F2F2",
"{. c #FEFEFE",
"}. c #F9F8F6",
/* pixels */
"                                                                                ",
"                                                                                ",
"                                                                                ",
"                                                                                ",
"                                  + r S J A 4 o                                 ",
"                              X a 1.A.F.H.F.A.&.r X                             ",
"                            X J h.<.4.S.F.S.j.2.f.x .                           ",
"                          . x S.h.| #.A.F.S.#.| f.h.r                           ",
"                          X @.F.A.j.j.S.F.F.h.f.A.F.&.+                         ",
"                      @ + * 4 Y A.F.F.F.F.F.F.F.F.A.X.@ * @                     ",
"                    < U = x %.4 z 3.F.F.F.F.A.g. .y y y d U <                   ",
"                  = | O.* @ A g.$.4 I %.X.Y a y A a.T.H t +.| =                 ",
"                X C +.O.= A A y l.D.H : ~ s.k.l.U.k.~ c p +.+.C X               ",
"                X U +.O.r 4 X. .J -.R.D.u.u...*.*.U.U.L I +.+.U +               ",
"                . C O.<.j.Y r D >.o._ %.T.Y.$.L a...H X.h.f.O.C X               ",
"                  * @.F.F.F.A.>.I x s 5 r ~ W v J -.l.F.F.F.@.&                 ",
"                  . : @.A.F.F.F.F.A.h.g.d.g.l.S.F.F.F.F.S.=.r o                 ",
"                    O * x &.A.F.H.H.G.G.H.H.H.J.H.F.A.1.H j p./                 ",
"                    ' 6.B 1 2 J X.&.3.d.j.3.1.=.X.K j j / v.!.c.;               ",
"                  O :.I.I.] % i 0 1 1 q 9 , ; 7 m / v.^.{./ $ > o               ",
"                    0 :.,.P ! ) C.C.B.7.7.5.M ~.[./.}.{.{.v.X                   ",
"                      j y.!.'.Q 8.I.P.P.P.P.` b.].n c y.M.M.;                   ",
"                      ( {.{.{.m.M ;.N.C.C.Z.' n n.3 C p : # o                   ",
"                      h /.{.{.{.!.n q s f p N F c N +.+.C .                     ",
"                      o W ~.[.`.m.z G | } C B.` @ U +.+.Z                       ",
"                      b z.^ T T > 7 r < 9 ;.6.w 3 u p O.S X                     ",
"                      9.)._.Q.Q.b ^ 6 ) V.L.P 9.x.z.h } G o                     ",
"                      e.).).).(.E ^ i L.P.P.V r.W.E.b { U o                     ",
"                      e.).).).(.R E l P.I.K.l t.W.E.k Z d X                     ",
"                      9.).).).Q.6 g > ;.5.F - R 0.E # o X                       ",
"                      6 w.w.i.q.3 d p 2 1 1 e e 2 2 e +                         ",
"                        . X @ * t { } { [ } } U U S a +                         ",
"                            . X + + @ @ & & @ @ + o .                           ",
"                                  . . . . . . .                                 ",
"                                    . . . . .                                   ",
"                                                                                ",
"                                                                                ",
"                                                                                ",
"                                                                                ",
"                                                                                "
};
