/* XPM */
static char *baea8417b9ae4bbbf709258bea473456RrSe35KGXpi7VtAF[] = {
/* columns rows colors chars-per-pixel */
"40 32 7 1 ",
"  c None",
". c #04193F",
"X c #F489F6",
"o c #780BF7",
"O c #D840FB",
"+ c #FCFEFE",
"@ c white",
/* pixels */
"                                        ",
"                                        ",
"                                        ",
"                                        ",
"                                        ",
"          ...    ...                    ",
"         .XXX.  .ooo.                   ",
"         .XXX.  .ooo.                   ",
"         .XXXX...ooo.                   ",
"         .XXXOOOOoooo.                  ",
"        .OXXXXXXOOOoo.                  ",
"        .OXXXXXXXOOOo.                  ",
"        .XXXXX++++++oo.                .",
"       .OXXXX++++++++o.                .",
"       .XXXX++...+++..o.               .",
"       .XXXX+..++.+..+..               .",
"       .XXXX+.....+.....               .",
"       .XXXX+.....+.....               .",
"       .OXXXX+...+++..o.                ",
"        .XXXX+++++++++.                 ",
"        .OXXXXO++++++o.                 ",
"         .XXXXXOOOooo.                  ",
"         .XXXXXX+++o.                   ",
"         .XXXoX++++o.                   ",
"         .XXXoX+++++.                   ",
"         .XXXXo+++++.                   ",
"         .oXXXo+++++.                   ",
"         .oXXXo+++++.                   ",
"         .OoooO++++o.                   ",
"         .XOOOOOOOooo.                  ",
"        .XXXXX...ooooo.                 ",
"        .XXXX.   .oooo.                 "
};
