/* XPM */
static char *_f8e1cdb379044a2f21a2af1c93189d85wkadHOPimb7KAuu[] = {
/* columns rows colors chars-per-pixel */
"40 40 169 2 ",
"   c None",
".  c #020202",
"X  c #0A0A06",
"o  c #0D0D0A",
"O  c #100D0A",
"+  c #14130D",
"@  c #19150F",
"#  c #1B1200",
"$  c #0E0E11",
"%  c #1C1B13",
"&  c #191919",
"*  c #151514",
"=  c #211600",
"-  c #251E16",
";  c #2F2208",
":  c #322202",
">  c #25251A",
",  c #2F2418",
"<  c #2C2A1C",
"1  c #34291B",
"2  c #1A1A21",
"3  c #202021",
"4  c #2D2B23",
"5  c #25252F",
"6  c #353524",
"7  c #3A3426",
"8  c #373827",
"9  c #34342A",
"0  c #3D3A29",
"q  c #393926",
"w  c #292933",
"e  c #3D3C34",
"r  c #3C3C3A",
"t  c #422C01",
"y  c #4C3403",
"u  c #473107",
"i  c #513702",
"p  c #583F09",
"a  c #593E06",
"s  c #483A2B",
"d  c #5E450C",
"f  c #62470D",
"g  c #6E4D08",
"h  c #684909",
"j  c #7B580E",
"k  c #42422C",
"l  c #424233",
"z  c #4B4B34",
"x  c #46463F",
"c  c #4B4B39",
"v  c #534232",
"b  c #5C4A37",
"n  c #584D38",
"m  c #525236",
"M  c #55543A",
"N  c #5C5C3D",
"B  c #6D563E",
"V  c #60603F",
"C  c #393947",
"Z  c #3A3A49",
"A  c #444443",
"S  c #555543",
"D  c #595944",
"F  c #53534A",
"G  c #5A5745",
"H  c #4A4A53",
"J  c #5F5F51",
"K  c #625A49",
"L  c #745C41",
"P  c #636342",
"I  c #6A6A46",
"U  c #64644C",
"Y  c #6C6C49",
"T  c #766047",
"R  c #73734D",
"E  c #656554",
"W  c #686651",
"Q  c #6D6D54",
"!  c #6A6A5A",
"~  c #766351",
"^  c #747357",
"/  c #7B7B52",
"(  c #74745C",
")  c #7C7C5C",
"_  c #5C5C64",
"`  c #636364",
"'  c #706E6E",
"]  c #787867",
"[  c #747474",
"{  c #797877",
"}  c #7B7B7B",
"|  c #7C7772",
" . c #815600",
".. c #9A6701",
"X. c #9D6900",
"o. c #966501",
"O. c #866A49",
"+. c #886E52",
"@. c #85725F",
"#. c #927556",
"$. c #9C7E5E",
"%. c #91775D",
"&. c #827D78",
"*. c #828257",
"=. c #858559",
"-. c #8B8B5C",
";. c #838262",
":. c #8B8A66",
">. c #88886B",
",. c #939363",
"<. c #9A9A67",
"1. c #94946B",
"2. c #9C9C69",
"3. c #8D8D74",
"4. c #838372",
"5. c #929275",
"6. c #9F9F74",
"7. c #9F9F7A",
"8. c #94947B",
"9. c #A28361",
"0. c #AC8964",
"q. c #AE8E6A",
"w. c #B48F6B",
"e. c #B5916C",
"r. c #A3A374",
"t. c #A3A37B",
"y. c #C49D76",
"u. c #CBA279",
"i. c #686882",
"p. c #72728F",
"a. c #7F7FA0",
"s. c #848484",
"d. c #8F8F8C",
"f. c #949495",
"g. c #9A9A9A",
"h. c #A2A283",
"j. c #A2A28A",
"k. c #A8A889",
"l. c #B3B385",
"z. c #B3B38A",
"x. c #BBBB8C",
"c. c #A0A099",
"v. c #B9B994",
"b. c #8484A5",
"n. c #B9B9B9",
"m. c #EBBC8D",
"M. c #C3BDB7",
"N. c #C5C593",
"B. c #C9C996",
"V. c #C3C19B",
"C. c #CDCD9A",
"Z. c #D0D09C",
"A. c #FBC997",
"S. c #FECD9A",
"D. c #F5C493",
"F. c #FFD09B",
"G. c #C5C5A4",
"H. c #CCCCA6",
"J. c #D7D7AC",
"K. c #D8D7AC",
"L. c #B7B7E5",
"P. c #BBBBEA",
"I. c #BFC0C0",
"U. c #C0C0C0",
"Y. c #CECDCB",
"T. c #D6D4D2",
"R. c #C0C0F1",
"E. c #ECECEC",
"W. c #FFFEFE",
/* pixels */
"                                                                                ",
"                                                                                ",
"                                                                                ",
"                                                                                ",
"                                    X X X .                                     ",
"                              X 9 Q 6.t.t.;.l +                                 ",
"                            + Q x.C.C.C.C.B.x.:.>                               ",
"                          o ;.l.2.r.B.C.B.r.<.x.t.>                             ",
"                          D B.x.,.6.B.C.B.r.,.x.Z.:.X                           ",
"                      X + t.C.C.N.B.C.C.C.N.N.C.N.) X .                         ",
"                  X 8 z % S t.N.C.C.C.C.C.C.C.l.m z c % q X                     ",
"                X z ,.N E 3.l c ;.t.N.C.C.N.) l W t.c > -.N o                   ",
"                0 ,.2.m l v.H.k.( D U Q D z S V.h.l 4 > -.<.z .                 ",
"              X Y 2.<.P E 8.j.j.k.G.G.] S h.J.5.c :.Q < ,.<./ X                 ",
"              X R <.2.1.J j.H.V.j.] 3.G.K.V.U W ;.U 9 U <.<./ X                 ",
"                k 1.x.C.z.( ! ! r 4.v.h.G 4 % @ + l t.C.x.<.M .                 ",
"                o Q C.C.C.C.x.t.5.4.] S K < f  .t ^ C.C.C.;.+                   ",
"                3 r ! z.C.C.C.C.C.C.C.C.C.m j X.i ( C.l.U o                     ",
"                g.T.[ x Q 7.x.C.C.C.C.C.C.M j X.i S Y 0 v s                     ",
"              & { s.g.n.{ A x S E ^ ^ :.;.7 g X.y X v w.D.y.@                   ",
"                  . [ W.W.E.U.f.' 4 s b b , g X.y * %.S.S.9.O                   ",
"                  o n.W.E.Y.M.W.T.~ m.A.A.B u y ; { | @.~ -                     ",
"                  & s.} F 8 e T.&.b $.0.e.v L O.1 f.E.I.` * 2                   ",
"                  X X 6 R -.N d.K y.y.u.y.y.A.F.#.{ W.W.} a.b.$                 ",
"                      P 2.2./ 9 7 +.$.9.q.m.F.F.#.d.W.Y.H L.P.5                 ",
"                      P <.<.-.k P Y R R m T u.0.1 } c.F H P.R.C                 ",
"                    X I <.<.1.-.1.<.<.<.-.6 ; y : 8 V ) _ P.R.Z                 ",
"                    X Y <.<.<.<.<.<.<.<.<.M d o.y Y 2.1._ P.P.w                 ",
"                    o R 2.2.<.<.<.<.<.<.<.N h X.y R 2.:.A p.i.o                 ",
"                    X 8 N I R / *.=.=.=.=.z f X.y z N k + X X                   ",
"                        X k z z k k k k k > a ..u 6 + .                         ",
"                        + *.1.,.,.,.,.,.,.N f X.y Y <                           ",
"                        X < k m N P Y Y I k p ..u % X                           ",
"                          . . . . . . . . . u ..t . .                           ",
"                            . . . . . . . . = t # .                             ",
"                                . .         . .                                 ",
"                                                                                ",
"                                                                                ",
"                                                                                ",
"                                                                                "
};
