/* XPM */
static char *result[] = {
/* columns rows colors chars-per-pixel */
"40 40 199 2 ",
"   c #8D5F00",
".  c #8F6000",
"X  c #926400",
"o  c #956A00",
"O  c #996E01",
"+  c #9D7102",
"@  c #9D7308",
"#  c #A17606",
"$  c #A47B0A",
"%  c #A97D0A",
"&  c #A17A12",
"*  c #A47F19",
"=  c #AC830E",
"-  c #B2870D",
";  c #AC8312",
":  c #AF8814",
">  c #B38B15",
",  c #B98E17",
"<  c #B68E19",
"1  c #B38712",
"2  c #BB9316",
"3  c #B5911C",
"4  c #BD941B",
"5  c #B99518",
"6  c #A78224",
"7  c #B18E24",
"8  c #B69529",
"9  c #B89626",
"0  c #B6973C",
"q  c #BFA136",
"w  c #D19E00",
"e  c #C1971D",
"r  c #D4A302",
"t  c #D6A60A",
"y  c #D9AB0E",
"u  c #DEB006",
"i  c #CCA61E",
"p  c #DDAE12",
"a  c #D1AA1C",
"s  c #DEB115",
"d  c #DEB31A",
"f  c #E3B60C",
"g  c #E5B90D",
"h  c #E1B414",
"j  c #E3B71A",
"k  c #E3B91B",
"l  c #E8BF14",
"z  c #C39D25",
"x  c #C3A32C",
"c  c #CAA429",
"v  c #CCA626",
"b  c #D0AB22",
"n  c #CCB029",
"m  c #DEBA27",
"M  c #D6B42A",
"N  c #C5A734",
"B  c #CEAB31",
"V  c #D4B43C",
"C  c #D7BA3F",
"Z  c #DBBC3B",
"A  c #D6B933",
"S  c #E4B720",
"D  c #E4BC24",
"F  c #E4BD2C",
"G  c #EDC514",
"H  c #ECC51A",
"J  c #EEC81D",
"K  c #F1C919",
"L  c #F4CC17",
"P  c #ECC624",
"I  c #EAC62B",
"U  c #EEC92B",
"Y  c #EAC429",
"T  c #F1CC23",
"R  c #F1CD2A",
"E  c #F3D12C",
"W  c #F5D227",
"Q  c #E6C335",
"!  c #EAC434",
"~  c #ECCB34",
"^  c #E2C23D",
"/  c #ECCB3C",
"(  c #F1CF35",
")  c #F0CF39",
"_  c #EFD03B",
"`  c #F4D434",
"'  c #F3D53B",
"]  c #F8DA3D",
"[  c #BFA563",
"{  c #C2A742",
"}  c #C3A745",
"|  c #CEB345",
" . c #D1B341",
".. c #D9BC42",
"X. c #C6AE5A",
"o. c #CDB655",
"O. c #D4BE5A",
"+. c #C3AB6A",
"@. c #CBB676",
"#. c #DBC24C",
"$. c #D6C25E",
"%. c #DBC457",
"&. c #E4C542",
"*. c #ECCD42",
"=. c #E5CB4B",
"-. c #EACD4D",
";. c #E7C849",
":. c #EED244",
">. c #EDD14B",
",. c #F2D444",
"<. c #F5D943",
"1. c #FBDE43",
"2. c #F3D64A",
"3. c #F4DA4C",
"4. c #F9DD4B",
"5. c #E4CB55",
"6. c #E4CB59",
"7. c #ECD453",
"8. c #EDD55A",
"9. c #E5D05F",
"0. c #F2D653",
"q. c #F4DC53",
"w. c #F3DB5C",
"e. c #FDE146",
"r. c #F5E24A",
"t. c #FCE14D",
"y. c #F3E355",
"u. c #FAE254",
"i. c #FCE55B",
"p. c #FCEA5E",
"a. c #FBE757",
"s. c #DCCB6B",
"d. c #DCC863",
"f. c #DDCB77",
"g. c #EED761",
"h. c #E7D26A",
"j. c #F1DC69",
"k. c #EACE70",
"l. c #E8D876",
"z. c #F0DD7C",
"x. c #F7E266",
"c. c #FBE562",
"v. c #FEEB64",
"b. c #F7E46C",
"n. c #FCEA6A",
"m. c #EEE17E",
"M. c #FCEB73",
"N. c #F4E37B",
"B. c #FBED79",
"V. c #F5E67A",
"C. c #FFF172",
"Z. c #FDF17A",
"A. c #DFCF81",
"S. c #D9C999",
"D. c #E1CF84",
"F. c #ECDE8A",
"G. c #EFE383",
"H. c #F4E582",
"J. c #F5EA85",
"K. c #F7EC8D",
"L. c #F8EF8D",
"P. c #F8EA85",
"I. c #FCF488",
"U. c #F1E495",
"Y. c #F7EF96",
"T. c #FBF394",
"R. c #FCF59A",
"E. c #DDD1A9",
"W. c #E3D8B9",
"Q. c #EDE2AF",
"!. c #F5ECAB",
"~. c #FFFAA1",
"^. c #FAF1A9",
"/. c #EBE2B1",
"(. c #F4EAB9",
"). c #F8F2BA",
"_. c #DCD3C0",
"`. c #E6DFCC",
"'. c #EAE3CB",
"]. c #F4EDC4",
"[. c #F2EACA",
"{. c #F9F3C9",
"}. c #EEE9D5",
"|. c #F2EDD3",
" X c #F0ECDB",
".X c #F7F0D9",
"XX c #F9F6DD",
"oX c #FBF7D5",
"OX c #EDEAE3",
"+X c #F2EFE2",
"@X c #F4F2E4",
"#X c #F2F2EE",
"$X c #FAF7E9",
"%X c #F2F2F2",
"&X c #F8F7F6",
"*X c #F9F8F7",
"=X c #F3F4FB",
"-X c #F7F9FF",
";X c #F9F9FA",
/* pixels */
";X%X;X#X;X%X;X%X;X%X;X%X;X%X;X%X;X%X;X%X;X%X;X%X;X%X;X%X;X%X;X%X-X%X*X%X*X%X-X%X",
"%X;X%X;X%X;X%X;X%X;X%X;X%X*X%X;X%X;X%X*X%X*X%X;X%X*X%X*X%X;X%X;X%X*X%X-X%X*X%X*X",
";X%X;X%X;X%X;X%X;X%X;X%X;X%X;X%X*X%X;X%X;X%X;X%X;X%X;X%X;X%X*X%X*X%X*X%X*X%X*X&X",
"%X;X%X;X%X*X%X;X%X*X%X;X%X;X%X*X%X;X%X;X%X;X%X;X%X;X%X;X%X;X%X;X&X*X%X-X%X-X%X*X",
";X%X*X%X;X%X;X%X*X%X;X%X;X%X*X%X;X%X;X%X;X%X*X%X*X#X*X%X*X%X*X%X*X%X*X%X*X%X*X%X",
"%X;X%X;X%X;X%X*X%X;X%X;X%X;X%X*X%X;X%X*X%X*X%X*X%X-X=X-X=X;X%X;X%X-X%X*X%X-X%X*X",
";X%X;X%X*X%X;X%X;X%X;X%X;X%X*X%X;X%X&X%X;X=X;X=X*X@X.X[..X#X;X%X*X%X*X%X*X%X*X&X",
"%X;X%X;X%X;X%X;X%X;X%X*X%X;X%X&X%X-X=X;X#XXX).H.g.*.F S ! 8.Q.;X%X*X&X*X%X-X%X-X",
";X%X;X%X*X%X;X%X;X%X*X%X;X%X*X=X;X#X).J.q.' ` E ` 1.4.1.,.j.n.{.-X#X*X%X*X%X*X%X",
"%X*X%X*X%X;X%X;X%X;X%X&X%X;X=XoXH._ J G W ` e.t.u.4.4.,.' M.n.z.=X*X%X*X%X-X%X*X",
";X%X;X%X;X%X;X%X;X%X*X=X;X(.g.J G ` 4.i.v.i.u.r.4.,.,.&.*.c.i.7.$X%X*X%X*X&X*X%X",
"%X*X%X;X%X;X%X;X%X;X=X{.w.K K E i.M.n.c.y.3.<.3.,./ F d ` ' i.y.}.-X%X-X%X*X%X-X",
";X%X;X%X;X%X;X%X;X%XN.T T ] i.C.M.i.u.<.` W T m s r t T I B :.L.-X%X*X%X-X%X*X%X",
"%X;X%X*X%X;X%X;X[.2.R 4.i.v.M.c.q.' Y G L H y w r g T a ; > d.*X%X*X%X*X%X*X%X-X",
";X%X;X%X;X#X-X].<.4.n.v.i.q.,.R G G P ` s r r u G U 9 o + } $X=X&X%X*X%X*X%X*X%X",
"%X*X%X;X%X-X|.4.i.i.4.<.( U H G H j S p r G T ( g.G.q + [ *X=X&X&X*X%X-X%X*X%X*X",
";X%X;X%X;X%Xb.r.<.' ( Y H d y r w r f J ' ~ &.l.R.R.D.W.-X=X*X%X;X%X;X%X;X#X;X%X",
"%X;X%X;X%X$Xv.B.' D j y r r r s ~ r.q.Z v e  .k.J.n.T.{.].XX#X-X=X;X#X;X%X;X%X-X",
";X%X;X%X;X%XV.v.-.S y h D / 0.8.#.z 1 % 1 e V :.R T T E ` ,.-.k.(.%X;X#X;X%X;X%X",
"%X;X%X;X%X;XS.M >.*.^ *.#.N : + X X O 1 B -.n.v.p.a.e.e.1.1.] R j -.[.-X#X;X%X;X",
";X%X;X%X;X%X%XX.l.R.G.O.0 ; o o & 4 C w.v.p.y.i.u.u.q.u.u.r.t.u.4.*.0.|.;X%X;X%X",
"#X;X%X;X%X;X#Xj.7.K.J.6.V B b m ~ ` W U P U E E ` ` <.3.2.,.,.,.( x.Z.^.-X*X%X;X",
";X%X;X%X*X%XV.a.&.*.0.Y h j j j d h G G K I J K J G k F Q ! ! Q -.M.c.U.;X%X;X%X",
"%X;X%X*X%X*XI.I... .>.F h p r r w w w r y D S t t w r w r r s R 1.u.3.F.=X;X%X*X",
";X%X;X%X;X/.^ q.^ O.Y.V.=.&.:.:.' / U P l f f f f f f l G T P D A y.r.Q.-X#X;X%X",
"%X;X%X-X].<.N 5.! F N.L.s.N 9 7 x V #.=.=.*./ ~ ~ ,.>.7.B = @ ; x 3.!.;X%X;X%X;X",
";X%X*X=X^.Z.$.l.T.8.;.8.9.| 7 o X X X + % > 2 c #.H.~.T.{ o @ 5 5. X-X%X;X%X;X%X",
"%X*X#X;XD.3.8.8.L.G.o.9 7 3 < = $ # @ $ ; < 9 B 6.N.F.d.8 ; A Z.$X-X#X-X%X;X%X;X",
";X%X*X-X@.Z / j D &. .8 @ . X o O $ = , 4 V h.K.R.s.; o = V :./.-X#X*X%X-X%X*X&X",
"%X;X%X;XE.%.L.j.^ ~ *.*.Z v 4 > ; : , e v C 8.B.Z.=.i i Z p.r.].=X*X%X*X%X*X%X*X",
";X%X-X%X;X/.K.J.$.} q x C 5.8.7.>.*./ ~ ~ / :.*.v - : > n y.!.%X*X%X*X%X*X%X*X%X",
"%X;X%X;X%X;X@X).s.q $ . . . o # = , e B %.J.T.G.7 . + 8 f.XX=X-X&X*X%X-X%X*X%X-X",
";X%X*X%X*X%X;X=X*X'.E.[ 0 6 & & % > e B 6.K.~.U.@.@.W.OX-X=X*X%X*X%X-X%X*X%X*X%X",
"%X;X%X;X%X;X%X*X%X;X-X;X%X&XOX X`.}.`.|. X$X#X*X=X;X-X-X%X*X%X*X%X*X%X*X%X-X&X*X",
";X%X;X%X;X%X;X%X;X%X&X#X;X%X;X;X;X-X;X=X-X%X-X%X*X%X*X%X*X%X*X%X-X%X*X&X*X%X-X%X",
"%X;X%X;X%X;X%X*X%X;X%X;X%X*X%X&X%X;X%X*X%X*X%X*X%X*X%X*X&X*X%X-X%X*X%X*X%X*X%X*X",
";X%X;X%X;X%X;X%X;X%X;X%X;X%X;X%X*X%X;X%X;X%X*X%X*X%X*X%X*X%X*X%X*X%X*X%X*X%X*X%X",
"%X*X%X;X%X;X%X;X%X;X%X*X%X;X%X;X%X;X%X;X%X;X%X;X%X*X%X*X%X-X%X*X%X*X%X-X%X-X&X*X",
";X%X;X%X;X%X;X%X;X%X;X%X;X%X;X%X;X%X;X%X;X%X;X%X-X&X*X%X*X&X*X%X-X&X*X%X*X&X*X%X",
"#X;X%X;X%X;X%X;X%X;X%X;X%X*X%X*X%X;X%X;X%X;X%X;X%X*X%X-X%X*X%X-X%X*X%X*X%X*X%X-X"
};
