/* XPM */
static char *result[] = {
/* columns rows colors chars-per-pixel */
"40 40 74 1 ",
"  c #46341E",
". c #422C27",
"X c #432F2B",
"o c #433123",
"O c #4A3222",
"+ c #4B3924",
"@ c #45322C",
"# c #49352E",
"$ c #513726",
"% c #513729",
"& c #573B2C",
"* c #433630",
"= c #4A3631",
"- c #4E3B34",
"; c #4D3438",
": c #4D3B39",
"> c #503733",
", c #513E36",
"< c #5A3F33",
"1 c #51373A",
"2 c #523F38",
"3 c #593E3B",
"4 c #4C4036",
"5 c #4E423A",
"6 c #534335",
"7 c #584534",
"8 c #54423B",
"9 c #59453E",
"0 c #52483C",
"q c #5B4B3D",
"w c #674B36",
"e c #674C3B",
"r c #573E41",
"t c #554341",
"y c #5A4541",
"u c #564A46",
"i c #5C4942",
"p c #5F4548",
"a c #5B4949",
"s c #5D5D5F",
"d c #634640",
"f c #604D46",
"g c #654C48",
"h c #665440",
"j c #6C5642",
"k c #645D4B",
"l c #775E48",
"z c #795E4B",
"x c #605752",
"c c #645C59",
"v c #5E6158",
"b c #676050",
"n c #6A6352",
"m c #62655C",
"M c #6B625D",
"N c #66685D",
"B c #6C6B5D",
"V c #605F63",
"C c #5E6562",
"Z c #5E6860",
"A c #636564",
"S c #6B6664",
"D c #646964",
"F c #6B6865",
"G c #66656C",
"H c #69656B",
"J c #66686A",
"K c #6B6B6B",
"L c #696371",
"P c #6E6872",
"I c #AE9380",
"U c #B89C87",
"Y c #B69B88",
"T c #BB9F8A",
/* pixels */
"ADDASMu85898,89888,88,83,,88889-8*sSAHCG",
"AJSASMu8y888-38898888,688888,8868*xBHDCJ",
"AAJNSMu88####@=#######@##@@@--888*xSAHAJ",
"AAJDFMut8@@,6----------------9y99@xSADAJ",
"AASASMu80@@898-898898888989989y05*sSJJCJ",
"AASmSMut8@X292--86,28,,88,88889,8*xSAGGZ",
"AAJASMu59@#8986382288,288,8889i98*xFAJJG",
"AJSNSAut9@@,882882288,,88828,0988=xSAJCG",
"JJJDSMu88@@9,9888888888,8,8,89y88*xSDJCG",
"ZAFASMu8t@@9288883628828888229y88*xSSJCJ",
"AADNSMu:9@X9,98828888,8,828880y08*xSDJAJ",
"AASASAut8@o9,8888888888,368,89y68*xSHJCJ",
"AASASMu5t@X9,838888,863882823ty88*sSJKCC",
"JADASMu8t@@9,98828888822828869q85*xSCGJJ",
"AJJNSMu80@X96888888882,882822qy88*xSJGGJ",
"JAJDSMu2y@X928888368888,888289y58=xSAJCA",
"CJJCSSy9y=@0592328888888888,29i88*sSAJCG",
"LADJDca91..y4119,2,,2,,2,,82,9y68*xMDJCJ",
"KsDDAMf,d%@009399898898898888yi90@xSHHAJ",
"HAKmNMq%&Oo6493>8,8868888,8,89949@xSADAJ",
"HSFvBb7ze%Oq68898889899888888qi28*sSJJCJ",
"HADvBbeUUz+qqqigidiyiyyyiiiiqaf95*xSAJGJ",
"HVKmBnjITl 7693r88888888888829y88*xSAGCJ",
"PAKmNn7ew&+719r1888306383288,09-8=xSAJCG",
"LHGDDnq7OO2689pr88888889889988898*sSAHCG",
"LLGCFMd<w<2,-:r:1,------,,-,---88*xBHDCJ",
"LGGGSMi83%@*@*;;##@##-@#=##@@--48*xSAHAJ",
"GJJCSSi33@@5t5tr8,-68888868,89yq9@xSADAJ",
"JJJZJmp3r;@tu99898889y9989989yy05*sSAJJC",
"AAJZDSaryXX:541,2,,,288--,,-299,8*xSALCJ",
"DDDZDAarp=*506799988899889889iy88*xSAGGJ",
"DDDmSAar8@@5066>6888226888,-,9908=xSDJCC",
"DZJASMu8t@@98487888882888,8228y88*sBAJAJ",
"ADSNSMu:8@@99888222882828,8889y85@xSAJGJ",
"JADASSu5t@@99288888282838,888y928*xSAJCC",
"AJSmSMut9@@88,888286888688888qy08=xSJJGJ",
"AADASMu:8X@8--88883888889888,9y98*xSHSGJ",
"AASNSMu59@#82,9968888888i98869y08*xSAJCJ",
"AZKASMu89@-9y8yy99898909i99989y85*sSHJAJ",
"AJJASMu89@,fiqiiiiiiiiiyi9iiyiy68*xBADCJ"
};
