/* XPM */
static char *result[] = {
/* columns rows colors chars-per-pixel */
"40 40 87 1 ",
"  c #000001",
". c #060B0B",
"X c #080F0F",
"o c #080F10",
"O c #0B1313",
"+ c #0E1A1A",
"@ c #141716",
"# c #171917",
"$ c #141B1B",
"% c #191C1A",
"& c #221F1C",
"* c #1A211F",
"= c #23211E",
"- c #1C2221",
"; c #252422",
": c #242826",
"> c #2D2B27",
", c #2B2C29",
"< c #31262A",
"1 c #332D2D",
"2 c #36332D",
"3 c #39352F",
"4 c #2E2D30",
"5 c #3C2735",
"6 c #342C32",
"7 c #3A2C34",
"8 c #362F3A",
"9 c #3A2D39",
"0 c #343333",
"q c #3C3334",
"w c #3D3A34",
"e c #33363C",
"r c #3E3639",
"t c #32383E",
"y c #3E3F3F",
"u c #413435",
"i c #423C36",
"p c #483E36",
"a c #433638",
"s c #483739",
"d c #443E38",
"f c #4C3A3C",
"g c #444136",
"h c #46413A",
"j c #4D443D",
"k c #504635",
"l c #51463E",
"z c #53483F",
"x c #655138",
"c c #7D6036",
"v c #393641",
"b c #353C45",
"n c #3B3C47",
"m c #3A3E49",
"M c #3F4652",
"N c #464140",
"B c #4C4743",
"V c #524740",
"C c #554A41",
"Z c #5A4E44",
"A c #5D5145",
"S c #5C534A",
"D c #404753",
"F c #404A55",
"G c #535354",
"H c #625446",
"J c #675947",
"K c #685940",
"L c #645649",
"P c #67584A",
"I c #6A5B4D",
"U c #705F4F",
"Y c #625A52",
"T c #6F604F",
"R c #72614F",
"E c #6F6050",
"W c #746351",
"Q c #796753",
"! c #7C6A56",
"~ c #9E712B",
"^ c #9E7F42",
"/ c #826E58",
"( c #AD8230",
") c #B9A76F",
"_ c #DCBB66",
"` c #FFD75E",
"' c #ECD279",
/* pixels */
"s!USVjdh2=<60017,60q7,wiwir00q710q66704>",
"hQIZZZCj016ebv9qmDm55vmb47vmm95nDDe8eMM9",
"NWIVwhjCCCZVNyetMGYSAYYYZZSYYSSSYYSSSYYB",
"fQPVdljhgijZZZjhhpzLILJHZSPLPJLLLLAJLzIC",
"fQIChZZZZhhZdwdjCC;$---%@##@%%@@%%$*%$ql",
"fWLClAZZZljZhzCjwg,O..            ...o2j",
"fWLZCZZZZCjZVAZABj;.      .         .o2l",
"fWLCzZZZZCzZVZZZCj,                 ..ql",
"dWIVVZZZZCjZlZZZzl:                   2l",
"rWIZCZZZZjjZlZZZzl;                   2B",
"sWPVCZZZZjjClZZZzl;                   2l",
"sEIZCZZZZClZlZZZzj=                   3l",
"9UICVZZZZllZzZZZCl&                   2f",
"7UIZCZZCzllZCZZZzl=                   2V",
"9ULCCZZZZClZlZZZzj;                   2l",
"qWLCCZZZZClZCZZZCj;     .             2j",
"uWLZVZZZZCjZCZZZzj=                   2V",
"rQPCCZZZZClAlZZZzl;                   2l",
"aWICBZZZZjjZjZZZlj;                   2j",
"fQIAKPILJAjZjALHzj;                   2l",
"sII)'(GLLSAZAIIIHC;                   2l",
"rqk_`(ZZZCZZZZZZZZ;                   2l",
"qjjc~xZAZZZZZZCCCZ=                   2l",
"uWJCVjjhhjzZhwiwqi;     .      .   .. 1l",
"rQIBwwdhjwpZdVZZjj; .              .  2l",
"rWICjZZZZCjZjZZZlj;                   2B",
"qELCCZZZZClZjCZZzl;                   3l",
"7UICCZZZZzlZjZZZCj;.                  2l",
"rWPCCZZZZljZzZZZzj;+.                 3j",
"rWPZzZZZZljZzZZZll=+O                 2f",
"qWPZCZZZZCjZCZZZlj:$O                 2j",
"rWPCCZZZZllZCZZCzl:O.              ...2j",
"aWICCZZZZClZzZZZBj=   ..OO+$$@+XX. .  >p",
"rWPCzZZZZllZjZZAZj; .O$$-,23q0,:*OOO. >i",
"rUPCzZZAZjjZjLIIJZ:*:12wdZALSZCji22,*@2u",
"6UICjAALIHzZALAZZh2jAAJIJQWWQQWUIILHzg>1",
"sWIzzIIILZZZjjiwijJ!!Q!!!!QQQ!Q!!!!!/!CC",
"wWIzAHAzljgwwhzAIIQWWWWEWWWIIWIWWRWUIIWW",
"3RIljjpwijZHRQQQQ!!QQQQQQ!Q!!QQ!QWQWQQQQ",
"3jp13wjZJIITIIIIWWPIUPIIIIIUIIIPIPJPIUPU"
};
