/* XPM */
static char *result[] = {
/* columns rows colors chars-per-pixel */
"40 40 160 2 ",
"   c #902F1C",
".  c #8F331A",
"X  c #93351C",
"o  c #9B351E",
"O  c #8F3A25",
"+  c #8D3D2C",
"@  c #923621",
"#  c #953B24",
"$  c #9C3C24",
"%  c #953E2A",
"&  c #9D3C29",
"*  c #893F32",
"=  c #A23C26",
"-  c #AC3E27",
";  c #A43D2A",
":  c #AB3F29",
">  c #B03724",
",  c #B13C24",
"<  c #B53C29",
"1  c #B83928",
"2  c #8D4024",
"3  c #9B4225",
"4  c #94422C",
"5  c #9C432B",
"6  c #90492B",
"7  c #9B4B2E",
"8  c #8F4836",
"9  c #934635",
"0  c #9D4632",
"q  c #944932",
"w  c #9C4A34",
"e  c #964738",
"r  c #9E4638",
"t  c #964A3C",
"y  c #9C4C3A",
"u  c #9D5236",
"i  c #9E5834",
"p  c #9E523A",
"a  c #9F5838",
"s  c #A24323",
"d  c #A84027",
"f  c #A3432C",
"g  c #AC442C",
"h  c #A44B2E",
"j  c #AC4B2C",
"k  c #B5442C",
"l  c #BB442E",
"z  c #B24A2D",
"x  c #A44532",
"c  c #AA4632",
"v  c #A34C34",
"b  c #AB4C34",
"n  c #A44D3A",
"m  c #AB4E3A",
"M  c #B74731",
"N  c #B34C34",
"B  c #BC4B34",
"V  c #B34D3A",
"C  c #B84E3C",
"Z  c #A45235",
"A  c #AC5235",
"S  c #AE5837",
"D  c #A4543C",
"F  c #AC543B",
"G  c #A5593C",
"H  c #AC5A3C",
"J  c #B35235",
"K  c #BA5137",
"L  c #B3533B",
"P  c #BB553C",
"I  c #B35A3D",
"U  c #BA5A3E",
"Y  c #A7613D",
"T  c #AC613E",
"R  c #BB613E",
"E  c #C0432F",
"W  c #C74D38",
"Q  c #C05237",
"!  c #C65837",
"~  c #C2553E",
"^  c #CC533D",
"/  c #C15C3D",
"(  c #C9583A",
")  c #D0583F",
"_  c #9F5647",
"`  c #9F5748",
"'  c #A14F41",
"]  c #A65541",
"[  c #AC5542",
"{  c #A55A41",
"}  c #AC5C44",
"|  c #A05B4B",
" . c #AD5D4A",
".. c #B35642",
"X. c #BB5542",
"o. c #B35C43",
"O. c #BB5D44",
"+. c #B25D4A",
"@. c #BA5E4B",
"#. c #A66046",
"$. c #AD6245",
"%. c #AE624A",
"&. c #B46245",
"*. c #BB6245",
"=. c #B4644B",
"-. c #BB644B",
";. c #B4684A",
":. c #BC6A4D",
">. c #AE6352",
",. c #B46653",
"<. c #BB6652",
"1. c #B56A52",
"2. c #BB6B53",
"3. c #B46659",
"4. c #BA675A",
"5. c #B66959",
"6. c #BB6D5B",
"7. c #BE7152",
"8. c #BB7158",
"9. c #BB6D60",
"0. c #C05742",
"q. c #C45D42",
"w. c #CF5D45",
"e. c #C35D49",
"r. c #C85F49",
"t. c #D75F44",
"y. c #D95D45",
"u. c #D25F4A",
"i. c #C26344",
"p. c #CB6246",
"a. c #C66846",
"s. c #C3644B",
"d. c #CB644A",
"f. c #C36A4D",
"g. c #CB6B4D",
"h. c #D96347",
"j. c #D3634B",
"k. c #D26B4D",
"l. c #C3704E",
"z. c #CD734E",
"x. c #C56652",
"c. c #C36D53",
"v. c #C86C51",
"b. c #C46C59",
"n. c #D26550",
"m. c #DC6551",
"M. c #D46C53",
"N. c #C47355",
"B. c #CA7254",
"V. c #C6745A",
"C. c #CC745A",
"Z. c #C2785B",
"A. c #CA7B5B",
"S. c #D3735A",
"D. c #C67563",
"F. c #CE7662",
"G. c #C47861",
"H. c #CC7D64",
"J. c #C87C6E",
"K. c #D27C63",
/* pixels */
"S.v.o.F b *.*...-.&.} &.H H ;.:.*.U -.} 8.7.;.b.e.x.x.o.o.2.s.-.-.*.*.S H c.B.c.",
"I ..A A v I o.&.*.o.Z v h Z o.H F b v G 7.} &.=.-.<.o.v x F F o.&.L D b F *...} ",
"N.:.-.:.-.-.*.*.-.s.i.@.L b N f v F 5 S ..v } =.%.1.-.,.<.;.:.=.=.+.=.&.+.} } ,.",
"7.:.:.V.N.-.H ..s.s.O.P f X o $ # 3 X $ x f +.=.=.=.%.-.<.:.8.&.s.<.} v v w o.H.",
"G &.;.N.c.f.;.f.s.f.e.s.s.O.P L S H A $ c V ..v ] y 4 v F X.x.o.@.O.L F ..L L O.",
"Z ;.;.&.&.:.:.:.*.I 5 . X $ $ X . 3 N o = g ; @ n 4 @ % % & &   m v # @ # # # % ",
"&.-.H S H &.H *.:.N.;.I &.*.;.I J ~ j.~ V 0.X...@.F ] } ] +.@.@.<.b.<.2.5. .%.%.",
"L A f b v 3 3 o.N.A.:.7.N.:.&.H N k ; f & c c c 0 % { } { =.<.<.,.=.&.<.<. .1.1.",
"J L L c b L b @.o.H F H H G G I A c 3 7 w 7 n w 0 m  .}  .] { [ F F :.I H H o.I ",
"= d = = X.M.s.*.i.*...H I -.:.*.*.*.&.&.u 6 u G w 0 w D  .] ] G F L H h H j X f ",
"g c g ; P s.P L V L L L O.s.@.L L N L *.} Z { }  .} } +.<.} } ] c V N b e.V & c ",
"L P L c d f ; f f = $ = = = = = = = = A o.} $.G D } +.[ } u _ q & = = f ; = x L ",
"L F v x f f f x c c m m c ; f c f f x b m D D y q w 0 x x x F 0 % f f f f 3 f b ",
"v v 7 4 v v v 5 h H -.-.X...F b *.-.O.o...[ +.] D % @ # f x m x H :.o.I o.H v D ",
"&.=.$.=.=.=.,.$.} &.=.&.} } H G o.[ n F n F o.] <.p { G D [ L F <.V.+.H } D n { ",
"} D D =.;.&.1.2.$.G { =.2.$.#.$.D v 0 v 0 0 n n D p 1.{ y D m v v F } :.} +.;.=.",
"{ { { 8.%.%.$.=.y v Z v Z 7 7 N.L f 0 v v v % 5 # % } q 2 4 5 5 % 3 b *.G &.{ { ",
" .%. .=.a $.%.{ w &.o.D Z ;.#.=.o.L [ o.o.7 x ..@...&.+.+.F 7 v L o.o.&.G &.} G ",
"{ %.{ D q { +.H a $.} } G 1.{ p y v v v +.O % w D n n m ..[ & v H S F v 0 G { D ",
"}  .+.V.1.2.6.,.6.1.,.8.5.6.3.+.;.;.o...b.+. .] + e r v n [ y } ..D } o.&.] } } ",
"x x v +.} { } { +. .+. .[ +.4.+.<.L F m ..@.+. .* ' ' ' e 9 8 ] D x x 0 x & x ..",
"C C b D v D } ] v m +.' [ ' +.' L f N F m m '  .| >.>.` | _ ` >.n m [ x x x ....",
"V L L } H } } w 0 ; c x c 0 v 7 X X $ # 5 # % % * ' ' * 8 ' ' 8 4 { +.] ..+.m x ",
"0.P L o.$.$.:.+.+...V V ....*.*.P O.S h *.+.=.[ [ 4.3.3.J.9.3.D.G.H.G.+.,.b.=...",
"e.@.o.Z T N.N.B.A.l.S j J B.i./ / P I I c.K.F.b.4.+. .3.5. .+. .=.1.6.} -.-.*.s.",
"-.I U *.f.U J *.a.*.R i./ / / ( q.P U O.@.o.n m n '  . . . .[ ' H &.:.&.f.-.*.R ",
"B.i.f.p.j.u.p.g.q.a.f.z.k.! h.h.h.p.j.d.q.X.n 0 r y ] y w D  .] u Z -.f.C.g.f.g.",
"I I q.K W ^ ( Q Q i.R R q.( t.) / K P V X.O.[ [ [ [ @.[ ..+.+.} ..A I U i.O.q.i.",
"j s g k l l E 1 w.g.d.a.p.M.m.j.i.5 X $ & % 4 { 4.[ ..c f $ $ f M.d.r.d.M.k.a.p.",
"S s z z K Q Q l L ..U X...O.P L *.S h 0 0 0 0 D ,.] ..L L N N O.e.P X.C K K / q.",
"R R l.l.g.g.@.3 $ ; 4 0 w 4 u y # & 7 & % n r r r v 2.c.C.C.S.S.g.s.f.v 3 j *.z.",
"R S R T &.:.o.5 5 b x w ] 9 >.{ x x v r 0 n n x m [ b...S O.U L U *.v.R R *.l.:.",
"C.B.:.7.f.h X h g x x 4 w n 7 5 % f $ b @.F @.X.i.s.*.O.J J J S J U a.f.s.s.f.:.",
"U &.T $.&.Z 5 f V : % q n v 5 $ v h $ h L h N g N J S K J z j j B z S I 0.q.o.&.",
"C.N.N.;.-.f.B.S.r.X.F =.2.:.-.f.o.I L o.o.A *.O.U i.R i.i.O.*.*.! / *.*.s.O.&.:.",
"C.A.N.;.H o.&.o.L m D &.} F o.o.D v F L H v I I h H G I S j U U J U T I X.P *.A.",
"i.*.*.*.*.:.s.*.0.s.:.N.-.*.b.f.f.o.@.s.Z.7.:.H o.;.&.:.:.*.-.&.*.-.Y Y *.U I -.",
"r.P A A J J L J N U X.O.*.i.x.*.I h A S ;.$.&.G &.H i G &.o.F S I Y i Z U ~ V J ",
"B M z z K B N K M M N N N N c A O.U O.L &.;.7.A.7.Y $.i } o.+.&.i.*.S h d < l z ",
"> k z g z d d N l < k z N g = J U L L S T Y &.7.#.G $.i Z A Z H A J A h < 1 < > "
};
