/* XPM */
static char *result[] = {
/* columns rows colors chars-per-pixel */
"40 40 148 2 ",
"   c #2F611E",
".  c #2B691C",
"X  c #346D1F",
"o  c #2D741E",
"O  c #297C1F",
"+  c #35771C",
"@  c #3B741D",
"#  c #3F7C1F",
"$  c #3A5E22",
"%  c #3F5E28",
"&  c #2D6B24",
"*  c #346524",
"=  c #386225",
"-  c #336B24",
";  c #3C6C27",
":  c #3D652D",
">  c #356D2A",
",  c #3C6C2B",
"<  c #2E7423",
"1  c #2C7C24",
"2  c #2D7D29",
"3  c #337425",
"4  c #3A7425",
"5  c #337C25",
"6  c #3B7C25",
"7  c #35752B",
"8  c #3B742B",
"9  c #347C2A",
"0  c #3B7C2C",
"q  c #3D6737",
"w  c #366C30",
"e  c #3B6B33",
"r  c #3F6839",
"t  c #367030",
"y  c #3C7431",
"u  c #357B31",
"i  c #3D7A31",
"p  c #416E1D",
"a  c #445F2E",
"s  c #535A36",
"d  c #446622",
"f  c #436B27",
"g  c #42652F",
"h  c #436C2D",
"j  c #4D682F",
"k  c #417424",
"l  c #427B24",
"z  c #42752D",
"x  c #4B732B",
"c  c #417B2B",
"v  c #476631",
"b  c #446C33",
"n  c #4B6C33",
"m  c #466C38",
"M  c #447532",
"N  c #4B7335",
"B  c #447C33",
"V  c #4A7B35",
"C  c #4E7538",
"Z  c #4E7C3A",
"A  c #52733A",
"S  c #5B733F",
"D  c #527D3B",
"F  c #547F41",
"G  c #29851F",
"H  c #34841F",
"J  c #3D801F",
"K  c #278223",
"L  c #2D8325",
"P  c #278B24",
"I  c #2C8B26",
"U  c #2E832A",
"Y  c #2D8B29",
"T  c #328325",
"R  c #3A8427",
"E  c #338A25",
"W  c #3B8A25",
"Q  c #34842A",
"!  c #3B832D",
"~  c #348C2C",
"^  c #3A8B2D",
"/  c #2B9325",
"(  c #2E922A",
")  c #2E9929",
"_  c #34932D",
"`  c #3A922D",
"'  c #359A2D",
"]  c #3A992F",
"[  c #368431",
"{  c #3D8532",
"}  c #368D31",
"|  c #3C8B32",
" . c #3C8138",
".. c #3E8C39",
"X. c #359431",
"o. c #3B9434",
"O. c #359B32",
"+. c #3B9B35",
"@. c #3E9439",
"#. c #3D9C3A",
"$. c #32A12E",
"%. c #35A232",
"&. c #3CA136",
"*. c #3EA43A",
"=. c #3BA83A",
"-. c #43822C",
";. c #49812E",
":. c #448D2E",
">. c #42912F",
",. c #438433",
"<. c #488335",
"1. c #438B34",
"2. c #498935",
"3. c #478638",
"4. c #4C833A",
"5. c #448D3A",
"6. c #4A8C3B",
"7. c #53863F",
"8. c #429435",
"9. c #419B36",
"0. c #44943A",
"q. c #4B943D",
"w. c #439B3C",
"e. c #4A9A3C",
"r. c #54953E",
"t. c #43A33D",
"y. c #40A93E",
"u. c #448E41",
"i. c #548541",
"p. c #588541",
"a. c #4E9642",
"s. c #459D40",
"d. c #4C9C42",
"f. c #4C9F4A",
"g. c #529343",
"h. c #519943",
"j. c #5E9E4F",
"k. c #45A342",
"l. c #4AA444",
"z. c #46AB43",
"x. c #4AA945",
"c. c #4EA448",
"v. c #4EAB4B",
"b. c #52A54C",
"n. c #53AB4D",
"m. c #5EA755",
"M. c #55AD50",
"N. c #61AE59",
/* pixels */
"~ / 9.9.( ~ t.c.k.5.o.w.s.k.*.k.*.( c.u.@.+.e.0.0.~ 4 c T L O.k.k._ c.M.z.+.m.n.",
"^ ( t.*._ 0.@.k.k.s.X...l.y.#.k.O.X.a.[ #.w.w.+.O.~ ^ ! T P O.x.@.l.M.n.t.t.b.n.",
"_ k.s.k.+.k.c.k.s.s.@.[ k.k.+.' X.O.X.2 5.q.w.w.` +.5.@.~ _ +.w.#.c.*.b.w.b.c.c.",
"+.#.+.c.w.=.z.#.@.*.s.#.@.w.O./ K } U  .0.X.t.@.#.y.@.#.( ` +.9.&.#.#.s.w.c.j.e.",
"&.^ +.*.#.O.#.} 0.O.@.s.X.X.O./ U K Q } [ #.X.@.@.#.#.w.~ #.#.*.X.#.O.O.0.d.g.1.",
"} 5.X.#.O._ ..U [ 0 ..0.} +.@.` Q [ ~ Y | @.K 0.~ X.w.w.s.@.#.O.+.O.X.} r.^ 6 1.",
"Q X.~ X.Y 1 } 0 6 R ^ 8 5.0.` I 8.6.| ( Y Q 9 U U | | s.#.@.X._ +.Y T L 0 4 l 8.",
"} I P O.K U 1 3 + T 4 ,.1.0.~ [ | Q 9 #.Y L Q R Q Q 2 s.@.o.o.~ X.( I ~ X 3 R R ",
"E @.P X.Y ~ ,.! 5 J k W -.:.0...^ R B X.Y U I o 1 2 2 *.@.} @.Y P P ` 0 9 0 E R ",
"1 X.} U | i 0.` 3 E | T ! c { W Q _ L X.} Y P K Y 1 U @.@.#...+.~ ~ ! 2 [ 9.+.~ ",
"U [ U ( Q 1.o.^ o.~ w.6.-.8.{ { -._ Y %.} ( ( Y 1 1 Y 3.+.w.1.+.1.-.5.,.5.k.#.8.",
"~ ..U Y o.| } +.w.1.0.0.q.w.5.2.0 ` *.#...+.Y 1 1 P #.@.o.X.9.t.o.k ,.-.0.w.t.d.",
"K Q ..@.Y ~ +.t.9.o.+.e.d.,.q.8.| w.k.#.@.o.2 Q ! ^ +.| ` X.t.t.:.;.x 5.+.t.+.8.",
"5 9 X.@.| o.O.w.l.w.*.g.<.2.+._ | t.#.*.k.X.| ~ | } ^ W ` +.t.r.:.W e.e.' =.8.;.",
"Q Y s.[ #.u.w.@.w.y.w.9.R w.( ~ @.#.t.k.z.&.+./ X.| ^ 6.` T e.e.` 9.` ' 9.e.8.>.",
"L ~ X.u.| 7 5.8.} X.X.#.| | | | Q } #.#.*.#.~ +.w.0.` 0 T ` 8.:.>.8._ $.t.+.X.! ",
"T 1 ..~ ,.i.i.5.U ~ O.^ ! 5 7 8 ! 3 U k.*.O.+.y.0.+.E R -.2.` _ ^ ~ _ $.=.( 8.c ",
"5 1 L < 9 D C B i Y } R L 3 3 * = - Q } X.X.=.*.w.8.` R ;.-.6 T H :.o.+._ ~ ` l ",
"& . < 3 Z C 2.A m | Q -.8 z 8 X * < T o L 1.+.X._ _ T 6 -.# k 4 H -.2.~ _ W 5.9.",
"  $ 0 M F Z ,.V V R ,.-.D V : > 3 1 Q 8 | | ^ ..| O.T -.# + 6 5 5 @ R R 1.>.:.| ",
"; 4 7 0 B A B i 0 ! 8.0 -.8.6 0 < T 0 F 5.^ ! 1.~ ~ -.^ 3 k R 6 p -.-.l >.8.8.6.",
"0 3 3 0 ,.M C { 8 <.+.! ~ X.L ! 3 3 N 4.W ~ | ^ ! | 6.2.B c x z J 8.9.W ` 8.e.g.",
"4 < 5 { 4.! V 1.4.1.o._ ~ ^ ~ X.< 3 z ! ! Q ,.V { ,.5.7.<.2.-.9.R t.t.' ) y.N.d.",
"0 8 i 8 B | Q ^ | 1.-.9.X.X.) U & 5 8 { 4.5.^ B ,.1.1.6.e.9.` e.:.l.t.' E v.l.X.",
"^ 0 B ! 7 Q  .| ^ o.,.9.~ O.) Y 2 1 ,.Z 3.1.! R ' _ 6.h.l.e.&.' 9.n.t._ _ c.X.W ",
"@.Y T U R 5 | ^ ! } o.^ L } Y Q L Q } 0 | { i ^ o._ X.^ ` +.%.$.y.=.( H | i ^ 3 ",
"X.X.I o.| ! 1.~ ! ! X.^ ~ Q _ L 0 6.1.0 ! ! ^ 8.e.8.~ G ] *.t.&.=.' L # 0 c R 5 ",
"O.z.( O.! | 9 5 | ! ` ,._ } I Q ! | _ B <.^ ,.o.o.2.! I ~ 9.%.' O.Y 5 5 4 M ; p ",
"O.O.' ~ 2 { 0 ! Q B o._ _ 6.~ ..| I _ 1.| ~ ~ ` ^ ~ T T T +.' _ 9.0 : z | h d 5 ",
"s._ ) I R 4 5 [ ~ ,.| o.| 5.9.<.~ | e.+.o.| I o...T ; 1 T X._ X.| B N 6.B n h 8 ",
"X.( P 9 5 5 3 9 ^ ! @.[ ^ +.Q c 1.8.k.t.+.^ ~ ] ^ ! 5 3 R Q } Q 3 n A m M B N n ",
"< U P Q 5 5 7 ! ,.! 5.R _ | 5 ^ 9.t.y.*.*.X._ ` ` W @ 0 ! ! ! L 3 h z 7 B p.A M ",
"* 9 L Q ; , 0 1.8 8 L Q U U _ _ &.=.z.=.` ) 5 o.R E l V z M 1.T Y 0 2 5 M C b B ",
"< < 5 0 8 n n 0 5 L 2 1 L ^ ( ' %.O.y.w.@.K + ! 5 ! ^ 0 8 6.:.5 Y t u 7 i v v v ",
": = < 9 , L 3 * < 1 & 1 T ~ I _ %.~ X.q.[ 5 4 0 0 O Q E 0 1.R Q U 2 u  .i 7 a s ",
"8 3 = 8 y : - < 7 u 7 < I ~ ~ ! P P ~ B , z 0 3 6 5 T T ! N o.5 9 [ ^ u m > ; V ",
"> 5 3 3 , - < 2 9 w 5 0 R Q  .| Q U { 8 , M ; R R p 4 l R ^ o.L 9 e u u m q u i ",
"< > > < < 5 * 2 2 < U 0 8 U Q R Q 7 B n h 4 0 7 6 c z ~ -.{ ^ ! 7 > 9 7 4 u 9 8 ",
"7 w 9 [ U 7 q > 1 2 2 7 7 1 2 0 i y M Z M 8 w i ! B M l f c { 1.9 7 9 9 U [ u 3 ",
"& 9 u 2 u 9 q q y i t w 2 > , B i e 8 Z Z A F i 8 z 4 d ; 5 ! V * w t 9 9 [ 9 R "
};
